<mxfile host="localhost" modified="2022-02-01T18:16:03.560Z" agent="5.0 (Windows NT 10.0; Win64; x64) AppleWebKit/537.36 (KHTML, like Gecko) Chrome/97.0.4692.99 Safari/537.36 Edg/97.0.1072.76" etag="3Y4gsW6t9iBXcRPqBS6K" compressed="false" version="16.5.2" type="device">
  <diagram id="zNMCXYOBYckHPa1j1fsk" name="Seite-1">
    <mxGraphModel dx="1422" dy="834" grid="1" gridSize="10" guides="1" tooltips="1" connect="1" arrows="1" fold="1" page="1" pageScale="1" pageWidth="827" pageHeight="1169" math="0" shadow="0">
      <root>
        <object tooltip="" id="0">
          <ag_global_attributes>
            <ag_global_attribute name="Resources" value="" iconName="hammer" min="0" max="5" />
            <ag_global_attribute name="Knowledge" value="" iconName="lightbulb" min="0" max="5" />
            <ag_global_attribute name="Location" value="" iconName="map_pin_ellipse" min="0" max="1" />
          </ag_global_attributes>
          <ag_attributes />
          <ag_computed_attributes />
          <ag_aggregation_functions>
            <ag_aggregation_function name="default" id="6b1d22791hih8" fn="function (collection) { &#xa;    var result = {}; &#xa;    collection.childAttributes.forEach(function(child) { &#xa;        for (var attribute in child.attributes) { &#xa;            if (attribute in result) { &#xa;                result[attribute] = Math.min(result[attribute], parseInt(child.attributes[attribute])) &#xa;            } else { &#xa;                result[attribute] = parseInt(child.attributes[attribute]); &#xa;            } &#xa;        } &#xa;    }); &#xa;    return result; &#xa;}" />
            <ag_aggregation_function name="OR1" id="ia464d8ibeih" fn="function (collection) { &#xa;    var result = {}; &#xa;    collection.childAttributes.forEach(function(child) { &#xa;        for (var attribute in child.attributes) { &#xa;            if (attribute in result) { &#xa;                result[attribute] = Math.min(result[attribute], parseInt(child.attributes[attribute])) &#xa;            } else { &#xa;                result[attribute] = parseInt(child.attributes[attribute]); &#xa;            } &#xa;        } &#xa;    }); &#xa;    return result; &#xa;}" />
            <ag_aggregation_function name="OR2" id="0edb7id7dd5ja" fn="function (collection) { &#xa;    var worstNode = collection.childAttributes[0]; &#xa;    var worstValue = 0; &#xa;    collection.childAttributes.forEach(function(child) { &#xa;        var value = parseInt(child.computedAttribute); &#xa;        if (value &gt; worstValue) { &#xa;            worstValue = value; &#xa;            worstNode = child; &#xa;        } &#xa;    }); &#xa;    var result = worstNode.attributes; &#xa;    return result; &#xa;}" />
            <ag_aggregation_function name="OR3" id="1g4f1h6726a07" fn="function (collection) { &#xa;    var result = null; &#xa;    if (collection.childAttributes.length == 1) { &#xa;        result = collection.childAttributes[0].attributes; &#xa;    } else { &#xa;        var candidates = []; &#xa;        var worstValue = 0; &#xa;        collection.childAttributes.forEach(function(child) { &#xa;            var value = parseInt(child.computedAttribute); &#xa;            if (value &gt; worstValue) { &#xa;                worstValue = value; &#xa;                candidates = []; &#xa;                candidates.push(child); &#xa;            } else if (value == worstValue) { &#xa;                candidates.push(child); &#xa;            } &#xa;        }); &#xa;        var tiebreaker = function(candidates, name, max) { &#xa;            var min_value = max; &#xa;            candidates.forEach(function(node) { &#xa;                min_value = Math.min(min_value, node.attributes[name]); &#xa;            }); &#xa;            result = []; &#xa;            candidates.forEach(function(node) { &#xa;                if (node.attributes[name] == min_value) { &#xa;                    result.push(node); &#xa;                } &#xa;            }); &#xa;            return result; &#xa;        }; &#xa;        if (candidates.length &gt; 1) { &#xa;            candidates = tiebreaker(candidates, &quot;Resources&quot;, collection.globalAttributes[&quot;Resources&quot;].max); &#xa;            if (candidates.length &gt; 1) { &#xa;                candidates = tiebreaker(candidates, &quot;Knowledge&quot;, collection.globalAttributes[&quot;Knowledge&quot;].max); &#xa;            } &#xa;        } &#xa;        result = candidates[0].attributes; &#xa;    } &#xa;    return result; &#xa;}" />
            <ag_aggregation_function name="AND" id="gf0d4f199018" fn="function (collection) { &#xa;    var result = {}; &#xa;    collection.childAttributes.forEach(function(child) { &#xa;    for (var attribute in child.attributes) { &#xa;            if (attribute in result) { &#xa;                result[attribute] += parseInt(child.attributes[attribute]); &#xa;            } else { &#xa;                result[attribute] = parseInt(child.attributes[attribute]); &#xa;            } &#xa;        } &#xa;    }); &#xa;    for (var attribute in result) { &#xa;        if (attribute in collection.globalAttributes) { &#xa;            result[attribute] = Math.min(collection.globalAttributes[attribute].max, result[attribute]); &#xa;        } &#xa;    } &#xa;    return result; &#xa;}" />
          </ag_aggregation_functions>
          <ag_computed_attributes_functions>
            <ag_computed_attributes_function name="default" id="dbg60ff69g9a" fn="function (collection) { &#xa;    return Math.min(5, &#xa;        Math.max(collection.globalAttributes[&quot;Location&quot;].max, &#xa;            Math.max( &#xa;                parseInt(collection.globalAttributes[&quot;Knowledge&quot;].max) + 1 - parseInt(collection.cellAttributes[&quot;Knowledge&quot;]), &#xa;                parseInt(collection.globalAttributes[&quot;Resources&quot;].max) + 1 - parseInt(collection.cellAttributes[&quot;Resources&quot;]) &#xa;            ) - parseInt(collection.cellAttributes[&quot;Location&quot;])) &#xa;        ); &#xa;}" />
          </ag_computed_attributes_functions>
          <mxCell />
        </object>
        <object tooltip="" id="1">
          <ag_attributes />
          <ag_computed_attributes />
          <mxCell parent="0" />
        </object>
      </root>
    </mxGraphModel>
  </diagram>
</mxfile>
